<svg xmlns="http://www.w3.org/2000/svg" viewBox="0 0 600 600" fill="none" shape-rendering="auto"><metadata xmlns:rdf="http://www.w3.org/1999/02/22-rdf-syntax-ns#" xmlns:xsi="http://www.w3.org/2001/XMLSchema-instance" xmlns:dc="http://purl.org/dc/elements/1.1/" xmlns:dcterms="http://purl.org/dc/terms/"><rdf:RDF><rdf:Description><dc:title>Lorelei Neutral</dc:title><dc:creator>Lisa Wischofsky</dc:creator><dc:source xsi:type="dcterms:URI">https://www.figma.com/community/file/1198749693280469639</dc:source><dcterms:license xsi:type="dcterms:URI">https://creativecommons.org/publicdomain/zero/1.0/</dcterms:license><dc:rights>Remix of „Lorelei Neutral” (https://www.figma.com/community/file/1198749693280469639) by „Lisa Wischofsky”, licensed under „CC0 1.0” (https://creativecommons.org/publicdomain/zero/1.0/)</dc:rights></rdf:Description></rdf:RDF></metadata><mask id="viewboxMask"><rect width="600" height="600" rx="0" ry="0" x="0" y="0" fill="#fff" /></mask><g mask="url(#viewboxMask)"><rect fill="#c7c9c2" width="600" height="600" x="0" y="0" /><g transform="translate(-246 -234)"><path d="M533 358c6 2 9 8 10 14 0 8-3 16-7 22-3 3-7 4-10 1-4-3-2-10-2-15l-13 10c-6 4-13 7-20 9-9 4-19 5-30 8l-25 8c-8 3-15 8-22 12l-25 17c-5 3-8 7-11 12-2-4-1-8 1-11a401 401 0 0 1 35-29c16-13 36-21 55-28l28-11c8-4 14-11 21-16 5-2 10-4 15-3ZM626 376l6 7c17 7 33 7 49 16 4 2 7 6 9 10s1 8-2 12l-16-6c-12-6-24-7-36-11-7-3-14-4-19-10-4 8-4 17-8 26-1 1-1 4-4 3l-1-8 2-11c1-8 4-16 7-23 2-6 8-8 13-5Z" fill="#000000"/></g><g transform="translate(-246 -234)"><path d="m693 510-2 7c-3 5-6 9-11 12s-11 4-17 5l-18 2c-5 0-8 3-10 6l-7 7c-2 1-5-1-4-3 1-8 7-14 11-20 3-3 7-7 12-7l30-5c5-1 10-4 16-4ZM388 514c12-1 21 3 32 4 15 2 30 4 45 4l24 2c8 1 17 0 24 4s12 10 16 16c1 2 2 4 0 7-1 1-3 0-4-1-4-2-7-6-11-7l-12-1-28-1-22-1c-10-1-20-1-30-5-7-2-12-6-19-9l-12-9c-2-1-3-1-3-3Z" fill="#000000"/></g><g transform="translate(-246 -234)"><path d="M676 575c3-2 7 0 7 4 0 3-3 4-6 4-3-1-4-6-1-8ZM366 583c2-1 5 0 7 1 2 3 2 7 0 10-3 2-6 2-9 0-3-3-2-9 2-11ZM624 584c1-1 4-1 5 1 0 2 0 4-2 4-3 1-5-3-3-5ZM649 584c5-2 10 3 8 7s-7 6-10 3-2-8 2-10ZM475 586c2-1 6 1 5 3 1 2-1 4-4 4-3-1-3-5-1-7ZM691 587c3-2 7 0 7 3 1 3-3 5-6 4-2-1-2-5-1-7ZM412 587c5 0 8 6 6 10-1 2-4 3-6 4-2-1-5-2-6-4-2-4 2-10 6-10ZM339 595c4-1 7 1 7 5-1 4-5 5-8 3-2-2-2-6 1-8ZM670 600c4-2 8 1 8 5s-5 7-8 4c-3-2-3-7 0-9ZM450 604c3 0 3 2 5 4l-2 3c-3 3-7 1-8-2 0-3 2-6 5-5ZM384 617c4 0 7 2 8 6 0 4-3 8-7 8-3 0-6-2-7-5-1-4 2-9 6-9Z" fill="#000000"/></g><g transform="translate(-246 -234)"><path fill-rule="evenodd" clip-rule="evenodd" d="m463 648-14-4h-1c-2-1-5-1-6 1-1 1 0 3 1 3l6 3 2 1a257 257 0 0 0 73 24c0 7 2 14 7 20 5 7 12 13 21 16 10 4 21 3 31-1s18-12 22-22c2-4 2-9 2-13l18-6v-1l2-2a1497 1497 0 0 0-29 0 324 324 0 0 1-86-4l-39-11-2-1-8-3Zm69 29c1 10 9 18 18 23 12 9 32 5 40-8 3-4 4-9 5-14v-1l-26 2 1 1c0 3 1 5-1 8s-6 3-7 0c-2-3-2-6-1-9a1036 1036 0 0 0-25-2h-4Z" fill="#000000"/></g><g transform="translate(-246 -234)"><path d="m591 528 2 2 7 22c4 8 10 15 15 23 4 6 6 13 5 20-1 6-4 12-9 16-7 7-16 12-25 16-5 3-11 4-17 2l5-4c11-9 25-14 36-24 2-2 4-6 4-9-1-7-5-11-8-16-5-9-10-16-13-25-2-7-4-16-2-23Z" fill="#000000"/></g><g transform="translate(-246 -234)"><path fill-rule="evenodd" clip-rule="evenodd" d="M482 429c13 2 26 7 37 15 3-2 7-2 10 0a94 94 0 0 1 39 90c9-6 20-8 30-5-1-34 16-68 44-87 11-7 25-12 39-12 9 0 19 2 27 7l4 1 5 1c10 7 18 16 23 26 8 16 10 33 8 51-3 29-20 57-45 72-14 8-31 13-47 11-13-2-25-8-35-17-9-8-15-19-19-31-1-4-6-7-9-9-9-3-18 0-26 5l-5 7c-7 19-21 36-39 47a99 99 0 0 1-57 14c-31-1-60-18-76-45a92 92 0 0 1 30-127c18-11 41-16 62-14Zm35 19 1 4c0 2 2 3 4 5 12 8 22 19 27 33a81 81 0 0 1-56 111c-26 6-55-1-75-19a82 82 0 0 1-23-90c9-25 32-45 59-51 21-5 43-2 63 6v1Zm190-1c-1-1-1-2-3-2-8-4-17-5-26-4-15 2-29 9-40 20a88 88 0 0 0-26 77c2 13 9 26 19 36 9 7 19 11 30 12 14 1 27-4 39-11 25-18 40-52 35-82a63 63 0 0 0-23-41l-4-3-1-2Z" fill="#000000"/></g></g></svg>